# xmcd
#
# Track frame offsets:
#	150
#	16115
#	31948
#	48490
#	64913
#	83340
#	98082
#	112774
#	129944
#	145181
#	162759
#
# Disc length: 2477 seconds
#
# Revision: 0
# Processed by: cddbd v1.5.1PL2 Copyright (c) Steve Scherf et al.
# Submitted via: dBpowerAMP V4.0
#
DISCID=7809ab0b
DTITLE=Trent Willmon - A Little More Livin'
DYEAR=2006
DGENRE=Country
TTITLE0=Good One Comin' On
TTITLE1=So Am I
TTITLE2=On Again Tonight
TTITLE3=Sometimes I Miss Ya
TTITLE4=Love Don't Have To Be So Hard
TTITLE5=Surprise
TTITLE6=Island
TTITLE7=Ropin' Pen
TTITLE8=A Night In The Ground
TTITLE9=Louisiana Rain
TTITLE10=Good Horses To Ride
EXTD=
EXTT0=
EXTT1=
EXTT2=
EXTT3=
EXTT4=
EXTT5=
EXTT6=
EXTT7=
EXTT8=
EXTT9=
EXTT10=
PLAYORDER=
